<svg height="256" width="256" xmlns:xlink="http://www.w3.org/1999/xlink" xmlns="http://www.w3.org/2000/svg" viewBox="-10 -10 120 120" class="w-full h-full max-w-md max-h-md transition-all duration-300" style="transform: scale(1); overflow: visible;"><g><path d="M 50,50 L 50.9135454576426,50.4067366430758 L 51.33826121271772,51.48628965095479 L 50.92705098312484,52.85316954888546 L 49.581886146929385,53.97808758147309 L 47.5,54.33012701892219 L 45.14589803375031,53.52671151375484 L 43.15296679486336,51.45538183572432 L 42.174819194129554,48.33670647345793 L 42.71884705062547,44.70993272936774 L 44.99999999999999,41.33974596215562 L 48.85018690405581,39.060259150948994 L 53.708203932499366,38.587321804458156 L 58.69869788266515,40.33911726879387 L 62.789636406996415,44.305686996938796 L 65,49.99999999999999 L 64.61672732228162,56.507786289212795 L 61.3752203081006,62.63346203311569 L 55.56230589874906,67.11901729331277 L 48.013959197914595,68.8959160119972 L 40.000000000000014,67.32050807568878 L 33.01064311812611,62.343490298141944 L 28.480752783856275,54.5740571979907 L 27.502605183122466,45.21803111119156 L 30.583592135001254,35.893153944980654 L 37.5,28.34936490538903 L 47.282259955040985,24.142430720424898 L 58.34345884812357,24.321474060030848 L 68.73565697804804,29.191944886632964 L 76.49281827163541,38.20463735080176 L 80,49.999999999999986" fill="none" stroke="#000000" stroke-width="2" stroke-linecap="round" opacity="1"/><path d="M 50,50 L 50.104528463267656,50.99452189536827 L 49.38196601125011,51.90211303259031 L 47.992608180923426,52.22943447643218 L 46.3458181694296,51.626946572303204 L 45,50 L 44.518727254144395,47.5595801415452 L 45.31608575548799,44.79798622165824 L 47.52786404500042,42.39154786963877 L 50.94075616940888,41.04930294168554 L 55,41.33974596215562 L 58.89918693812442,43.5343622247828 L 61.73777120880567,47.505059710186885 L 62.715918809539474,52.70285198063086 L 61.32623792124926,58.228993532094634 L 57.49999999999999,62.99038105676658 L 51.67245541228245,65.91235032589238 L 44.7467110956259,66.16796077701761 L 37.95564908554055,63.37660685859309 L 32.642636304790585,57.72799621844022 L 30,50.00000000000001 L 30.815545389505367,41.458530495408226 L 35.279126660105135,33.65081383949732 L 42.8926091293762,28.12570012521147 L 52.50868311842369,26.131474511161443 L 62.49999999999998,28.34936490538902 L 71.03444185374863,34.717583440395686 L 76.40998521981275,44.3863843479205 L 77.38813282054656,55.821527342897234 L 73.46149283687348,67.0457723164817 L 65.00000000000004,75.98076211353313" fill="none" stroke="#000000" stroke-width="2" stroke-linecap="round" opacity="0.95"/><path d="M 50,50 L 49.19098300562505,50.58778525229247 L 48.04370479853239,50.41582338163552 L 47.06555719779858,49.37626492754672 L 46.76393202250021,47.64885899083011 L 47.5,45.66987298107781 L 49.37282922039408,44.03286862779036 L 52.16311896062463,43.342604385933925 L 55.35304485087086,44.05484139618084 L 58.22190911878341,46.339370212317796 L 60,50 L 60.04900003406861,54.474103073833795 L 58.02956727630631,58.91773790572873 L 54.01722092687432,62.363734711837 L 48.53660151425286,63.92330653515583 L 42.500000000000014,62.99038105676659 L 37.05572809000084,59.404564036679574 L 33.3714907875253,53.534498743901906 L 32.3933431867915,46.25758956528035 L 34.628677106876,38.83208020644302 L 40,32.67949192431122 L 47.804902271379255,29.115040197266264 L 56.79837387624883,29.076756641506616 L 65.39000394625374,32.90766901401993 L 71.92509098342241,40.238320566180775 L 75,49.999999999999986 L 73.75218189870765,60.57515271997077 L 68.06652637168919,70.06491028788963 L 58.6524758424985,76.62958245626432 L 46.968674565238096,78.84113496567993 L 34.999999999999986,75.98076211353316" fill="none" stroke="#000000" stroke-width="2" stroke-linecap="round" opacity="0.9"/><path d="M 50,50 L 49.0864545423574,49.5932633569242 L 48.66173878728228,48.51371034904521 L 49.07294901687516,47.14683045111454 L 50.418113853070615,46.02191241852691 L 52.5,45.66987298107781 L 54.85410196624969,46.47328848624516 L 56.84703320513664,48.54461816427568 L 57.825180805870446,51.66329352654207 L 57.28115294937452,55.290067270632264 L 55,58.66025403784439 L 51.14981309594419,60.939740849051006 L 46.291796067500634,61.412678195541844 L 41.30130211733484,59.66088273120612 L 37.21036359300359,55.69431300306122 L 35,50.00000000000001 L 35.383272677718374,43.49221371078722 L 38.62477969189942,37.36653796688429 L 44.43769410125094,32.880982706687234 L 51.98604080208542,31.104083988002806 L 59.999999999999986,32.67949192431122 L 66.98935688187389,37.656509701858056 L 71.51924721614373,45.425942802009295 L 72.49739481687753,54.78196888880844 L 69.41640786499875,64.10684605501935 L 62.500000000000036,71.65063509461095 L 52.71774004495897,75.8575692795751 L 41.65654115187648,75.67852593996916 L 31.26434302195197,70.80805511336703 L 23.507181728364568,61.79536264919819 L 20,50.00000000000002" fill="none" stroke="#000000" stroke-width="2" stroke-linecap="round" opacity="0.85"/><path d="M 50,50 L 49.895471536732344,49.00547810463173 L 50.61803398874989,48.09788696740969 L 52.007391819076574,47.77056552356782 L 53.6541818305704,48.3730534276968 L 55,50 L 55.481272745855605,52.440419858454796 L 54.68391424451201,55.20201377834176 L 52.47213595499958,57.60845213036123 L 49.05924383059112,58.95069705831446 L 45.00000000000001,58.66025403784439 L 41.100813061875584,56.4656377752172 L 38.26222879119433,52.49494028981311 L 37.284081190460526,47.29714801936914 L 38.673762078750734,41.77100646790538 L 42.5,37.00961894323342 L 48.327544587717526,34.08764967410763 L 55.2532889043741,33.83203922298239 L 62.04435091445945,36.62339314140691 L 67.35736369520941,42.272003781559775 L 70,49.99999999999999 L 69.18445461049464,58.541469504591774 L 64.7208733398949,66.34918616050265 L 57.10739087062376,71.87429987478853 L 47.49131688157636,73.86852548883857 L 37.499999999999986,71.65063509461096 L 28.965558146251375,65.28241655960431 L 23.590014780187246,55.6136156520795 L 22.611867179453434,44.17847265710277 L 26.538507163126514,32.9542276835183 L 34.99999999999996,24.01923788646687" fill="none" stroke="#000000" stroke-width="2" stroke-linecap="round" opacity="0.8"/><path d="M 50,50 L 50.80901699437495,49.41221474770752 L 51.95629520146761,49.58417661836448 L 52.93444280220142,50.62373507245328 L 53.236067977499786,52.35114100916989 L 52.5,54.3301270189222 L 50.62717077960592,55.967131372209636 L 47.83688103937537,56.657395614066075 L 44.646955149129134,55.94515860381915 L 41.7780908812166,53.66062978768221 L 40,50.00000000000001 L 39.95099996593138,45.52589692616621 L 41.970432723693705,41.082262094271265 L 45.98277907312568,37.636265288163 L 51.46339848574715,36.076693464844176 L 57.499999999999986,37.00961894323341 L 62.94427190999915,40.595435963320426 L 66.6285092124747,46.465501256098094 L 67.6066568132085,53.74241043471965 L 65.371322893124,61.16791979355698 L 60.00000000000003,67.32050807568876 L 52.19509772862071,70.88495980273375 L 43.201626123751204,70.9232433584934 L 34.60999605374626,67.09233098598007 L 28.074909016577575,59.76167943381919 L 25,50.000000000000014 L 26.247818101292395,39.424847280029155 L 31.93347362831084,29.935089712110347 L 41.347524157501454,23.370417543735705 L 53.0313254347619,21.15886503432007 L 65.00000000000001,24.019237886466847" fill="none" stroke="#000000" stroke-width="2" stroke-linecap="round" opacity="0.75"/></g></svg>